<svg viewBox="-16 -32 880 192" width="880" height="192" xmlns="http://www.w3.org/2000/svg"><desc>Generated with https://github.com/Platane/snk</desc><style>:root{--cb:#1b1f230a;--cs:#2b372f;--ce:#f3eae8;--c0:#f3eae8;--c1:#fffbc0;--c2:#ffe262;--c3:#ff921f;--c4:#327285}.c{shape-rendering:geometricPrecision;fill:var(--ce);stroke-width:1px;stroke:var(--cb);animation:none 43700ms linear infinite;width:12px;height:12px}@keyframes c0{5.48%{fill:var(--c1)}5.5%,100%{fill:var(--ce)}}.c.c0{fill:var(--c1);animation-name:c0}@keyframes c1{61.55%{fill:var(--c2)}61.57%,100%{fill:var(--ce)}}.c.c1{fill:var(--c2);animation-name:c1}@keyframes c2{62.92%{fill:var(--c2)}62.94%,100%{fill:var(--ce)}}.c.c2{fill:var(--c2);animation-name:c2}@keyframes c3{60.86%{fill:var(--c2)}60.88%,100%{fill:var(--ce)}}.c.c3{fill:var(--c2);animation-name:c3}@keyframes c4{61.09%{fill:var(--c2)}61.11%,100%{fill:var(--ce)}}.c.c4{fill:var(--c2);animation-name:c4}@keyframes c5{2.74%{fill:var(--c1)}2.76%,100%{fill:var(--ce)}}.c.c5{fill:var(--c1);animation-name:c5}@keyframes c6{0.91%{fill:var(--c1)}0.93%,100%{fill:var(--ce)}}.c.c6{fill:var(--c1);animation-name:c6}@keyframes c7{3.42%{fill:var(--c1)}3.44%,100%{fill:var(--ce)}}.c.c7{fill:var(--c1);animation-name:c7}@keyframes c8{59.94%{fill:var(--c2)}59.96%,100%{fill:var(--ce)}}.c.c8{fill:var(--c2);animation-name:c8}@keyframes c9{3.65%{fill:var(--c1)}3.67%,100%{fill:var(--ce)}}.c.c9{fill:var(--c1);animation-name:c9}@keyframes ca{1.59%{fill:var(--c1)}1.61%,100%{fill:var(--ce)}}.c.ca{fill:var(--c1);animation-name:ca}@keyframes cb{59.49%{fill:var(--c2)}59.51%,100%{fill:var(--ce)}}.c.cb{fill:var(--c2);animation-name:cb}@keyframes cc{59.26%{fill:var(--c2)}59.28%,100%{fill:var(--ce)}}.c.cc{fill:var(--c2);animation-name:cc}@keyframes cd{58.8%{fill:var(--c2)}58.82%,100%{fill:var(--ce)}}.c.cd{fill:var(--c2);animation-name:cd}@keyframes ce{64.52%{fill:var(--c2)}64.54%,100%{fill:var(--ce)}}.c.ce{fill:var(--c2);animation-name:ce}@keyframes cf{77.34%{fill:var(--c4)}77.36%,100%{fill:var(--ce)}}.c.cf{fill:var(--c4);animation-name:cf}@keyframes cg{65.21%{fill:var(--c3)}65.23%,100%{fill:var(--ce)}}.c.cg{fill:var(--c3);animation-name:cg}@keyframes ch{9.37%{fill:var(--c1)}9.39%,100%{fill:var(--ce)}}.c.ch{fill:var(--c1);animation-name:ch}@keyframes ci{76.42%{fill:var(--c4)}76.44%,100%{fill:var(--ce)}}.c.ci{fill:var(--c4);animation-name:ci}@keyframes cj{33.63%{fill:var(--c2)}33.65%,100%{fill:var(--ce)}}.c.cj{fill:var(--c2);animation-name:cj}@keyframes ck{10.06%{fill:var(--c1)}10.08%,100%{fill:var(--ce)}}.c.ck{fill:var(--c1);animation-name:ck}@keyframes cl{13.03%{fill:var(--c1)}13.05%,100%{fill:var(--ce)}}.c.cl{fill:var(--c1);animation-name:cl}@keyframes cm{34.77%{fill:var(--c2)}34.79%,100%{fill:var(--ce)}}.c.cm{fill:var(--c2);animation-name:cm}@keyframes cn{33.4%{fill:var(--c1)}33.42%,100%{fill:var(--ce)}}.c.cn{fill:var(--c1);animation-name:cn}@keyframes co{10.29%{fill:var(--c1)}10.31%,100%{fill:var(--ce)}}.c.co{fill:var(--c1);animation-name:co}@keyframes cp{12.58%{fill:var(--c1)}12.6%,100%{fill:var(--ce)}}.c.cp{fill:var(--c1);animation-name:cp}@keyframes cq{12.35%{fill:var(--c1)}12.37%,100%{fill:var(--ce)}}.c.cq{fill:var(--c1);animation-name:cq}@keyframes cr{75.5%{fill:var(--c4)}75.52%,100%{fill:var(--ce)}}.c.cr{fill:var(--c4);animation-name:cr}@keyframes cs{75.73%{fill:var(--c4)}75.75%,100%{fill:var(--ce)}}.c.cs{fill:var(--c4);animation-name:cs}@keyframes ct{10.52%{fill:var(--c1)}10.54%,100%{fill:var(--ce)}}.c.ct{fill:var(--c1);animation-name:ct}@keyframes cu{12.12%{fill:var(--c1)}12.14%,100%{fill:var(--ce)}}.c.cu{fill:var(--c1);animation-name:cu}@keyframes cv{11.66%{fill:var(--c1)}11.68%,100%{fill:var(--ce)}}.c.cv{fill:var(--c1);animation-name:cv}@keyframes cw{36.15%{fill:var(--c2)}36.17%,100%{fill:var(--ce)}}.c.cw{fill:var(--c2);animation-name:cw}@keyframes cx{15.09%{fill:var(--c1)}15.11%,100%{fill:var(--ce)}}.c.cx{fill:var(--c1);animation-name:cx}@keyframes cy{73.9%{fill:var(--c4)}73.92%,100%{fill:var(--ce)}}.c.cy{fill:var(--c4);animation-name:cy}@keyframes cz{16.01%{fill:var(--c1)}16.03%,100%{fill:var(--ce)}}.c.cz{fill:var(--c1);animation-name:cz}@keyframes c10{55.14%{fill:var(--c2)}55.16%,100%{fill:var(--ce)}}.c.c10{fill:var(--c2);animation-name:c10}@keyframes c11{37.75%{fill:var(--c2)}37.77%,100%{fill:var(--ce)}}.c.c11{fill:var(--c2);animation-name:c11}@keyframes c12{16.69%{fill:var(--c1)}16.71%,100%{fill:var(--ce)}}.c.c12{fill:var(--c1);animation-name:c12}@keyframes c13{39.12%{fill:var(--c2)}39.14%,100%{fill:var(--ce)}}.c.c13{fill:var(--c2);animation-name:c13}@keyframes c14{39.81%{fill:var(--c2)}39.83%,100%{fill:var(--ce)}}.c.c14{fill:var(--c2);animation-name:c14}@keyframes c15{20.36%{fill:var(--c1)}20.38%,100%{fill:var(--ce)}}.c.c15{fill:var(--c1);animation-name:c15}@keyframes c16{19.21%{fill:var(--c1)}19.23%,100%{fill:var(--ce)}}.c.c16{fill:var(--c1);animation-name:c16}@keyframes c17{18.98%{fill:var(--c1)}19%,100%{fill:var(--ce)}}.c.c17{fill:var(--c1);animation-name:c17}@keyframes c18{18.07%{fill:var(--c1)}18.09%,100%{fill:var(--ce)}}.c.c18{fill:var(--c1);animation-name:c18}@keyframes c19{70.47%{fill:var(--c3)}70.49%,100%{fill:var(--ce)}}.c.c19{fill:var(--c3);animation-name:c19}@keyframes c1a{42.78%{fill:var(--c2)}42.8%,100%{fill:var(--ce)}}.c.c1a{fill:var(--c2);animation-name:c1a}@keyframes c1b{18.53%{fill:var(--c1)}18.55%,100%{fill:var(--ce)}}.c.c1b{fill:var(--c1);animation-name:c1b}@keyframes c1c{40.95%{fill:var(--c2)}40.97%,100%{fill:var(--ce)}}.c.c1c{fill:var(--c2);animation-name:c1c}@keyframes c1d{42.1%{fill:var(--c2)}42.12%,100%{fill:var(--ce)}}.c.c1d{fill:var(--c2);animation-name:c1d}@keyframes c1e{71.16%{fill:var(--c3)}71.18%,100%{fill:var(--ce)}}.c.c1e{fill:var(--c3);animation-name:c1e}@keyframes c1f{23.33%{fill:var(--c1)}23.35%,100%{fill:var(--ce)}}.c.c1f{fill:var(--c1);animation-name:c1f}@keyframes c1g{45.07%{fill:var(--c2)}45.09%,100%{fill:var(--ce)}}.c.c1g{fill:var(--c2);animation-name:c1g}@keyframes c1h{25.62%{fill:var(--c1)}25.64%,100%{fill:var(--ce)}}.c.c1h{fill:var(--c1);animation-name:c1h}@keyframes c1i{87.86%{fill:var(--c4)}87.88%,100%{fill:var(--ce)}}.c.c1i{fill:var(--c4);animation-name:c1i}@keyframes c1j{48.27%{fill:var(--c2)}48.29%,100%{fill:var(--ce)}}.c.c1j{fill:var(--c2);animation-name:c1j}@keyframes c1k{47.82%{fill:var(--c2)}47.84%,100%{fill:var(--ce)}}.c.c1k{fill:var(--c2);animation-name:c1k}.u{transform-origin:0 0;transform:scale(0,1);animation:none linear 43700ms infinite}@keyframes u0{0.91%{transform:scale(0.000,1)}0.93%,1.59%{transform:scale(0.038,1)}1.61%,2.74%{transform:scale(0.077,1)}2.76%,3.42%{transform:scale(0.115,1)}3.44%,3.65%{transform:scale(0.154,1)}3.67%,5.48%{transform:scale(0.192,1)}5.5%,9.37%{transform:scale(0.231,1)}9.39%,10.06%{transform:scale(0.269,1)}10.08%,10.29%{transform:scale(0.308,1)}10.31%,10.52%{transform:scale(0.346,1)}10.54%,11.66%{transform:scale(0.385,1)}11.68%,12.12%{transform:scale(0.423,1)}12.14%,12.35%{transform:scale(0.462,1)}12.37%,12.58%{transform:scale(0.500,1)}12.6%,13.03%{transform:scale(0.538,1)}13.05%,15.09%{transform:scale(0.577,1)}15.11%,16.01%{transform:scale(0.615,1)}16.03%,16.69%{transform:scale(0.654,1)}16.71%,18.07%{transform:scale(0.692,1)}18.09%,18.53%{transform:scale(0.731,1)}18.55%,18.98%{transform:scale(0.769,1)}19%,19.21%{transform:scale(0.808,1)}19.23%,20.36%{transform:scale(0.846,1)}20.38%,23.33%{transform:scale(0.885,1)}23.35%,25.62%{transform:scale(0.923,1)}25.64%,33.4%{transform:scale(0.962,1)}33.42%,100%{transform:scale(1.000,1)}}.u.u0{fill:var(--c1);animation-name:u0;transform-origin:0.0px 0}@keyframes u1{33.63%{transform:scale(0.000,1)}33.65%,34.77%{transform:scale(0.045,1)}34.79%,36.15%{transform:scale(0.091,1)}36.17%,37.75%{transform:scale(0.136,1)}37.77%,39.12%{transform:scale(0.182,1)}39.14%,39.81%{transform:scale(0.227,1)}39.83%,40.95%{transform:scale(0.273,1)}40.97%,42.1%{transform:scale(0.318,1)}42.12%,42.78%{transform:scale(0.364,1)}42.8%,45.07%{transform:scale(0.409,1)}45.09%,47.82%{transform:scale(0.455,1)}47.84%,48.27%{transform:scale(0.500,1)}48.29%,55.14%{transform:scale(0.545,1)}55.16%,58.8%{transform:scale(0.591,1)}58.82%,59.26%{transform:scale(0.636,1)}59.28%,59.49%{transform:scale(0.682,1)}59.51%,59.94%{transform:scale(0.727,1)}59.96%,60.86%{transform:scale(0.773,1)}60.88%,61.09%{transform:scale(0.818,1)}61.11%,61.55%{transform:scale(0.864,1)}61.57%,62.92%{transform:scale(0.909,1)}62.94%,64.52%{transform:scale(0.955,1)}64.54%,100%{transform:scale(1.000,1)}}.u.u1{fill:var(--c2);animation-name:u1;transform-origin:386.8px 0}@keyframes u2{65.21%{transform:scale(0.000,1)}65.23%,70.47%{transform:scale(0.333,1)}70.49%,71.16%{transform:scale(0.667,1)}71.18%,100%{transform:scale(1.000,1)}}.u.u2{fill:var(--c3);animation-name:u2;transform-origin:714.1px 0}@keyframes u3{73.9%{transform:scale(0.000,1)}73.92%,75.5%{transform:scale(0.167,1)}75.52%,75.73%{transform:scale(0.333,1)}75.75%,76.42%{transform:scale(0.500,1)}76.44%,77.34%{transform:scale(0.667,1)}77.36%,87.86%{transform:scale(0.833,1)}87.88%,100%{transform:scale(1.000,1)}}.u.u3{fill:var(--c4);animation-name:u3;transform-origin:758.7px 0}.s{shape-rendering:geometricPrecision;fill:var(--cs);animation:none linear 43700ms infinite}@keyframes s0{0%,99.77%{transform:translate(0px,-16px)}0.23%{transform:translate(0px,0px)}1.37%,98.4%{transform:translate(80px,0px)}1.6%{transform:translate(80px,16px)}2.29%{transform:translate(32px,16px)}2.75%{transform:translate(32px,48px)}2.97%,4.35%,7.09%{transform:translate(48px,48px)}3.43%{transform:translate(48px,80px)}3.66%{transform:translate(64px,80px)}3.89%{transform:translate(64px,64px)}4.12%{transform:translate(48px,64px)}5.03%,6.41%{transform:translate(0px,48px)}5.49%,61.33%{transform:translate(0px,80px)}5.72%{transform:translate(-16px,80px)}5.95%{transform:translate(-16px,64px)}6.18%{transform:translate(0px,64px)}7.32%{transform:translate(48px,32px)}9.15%,34.32%{transform:translate(176px,32px)}9.84%{transform:translate(176px,80px)}10.98%,32.49%{transform:translate(256px,80px)}11.9%{transform:translate(256px,16px)}12.36%{transform:translate(224px,16px)}12.59%{transform:translate(224px,0px)}12.81%{transform:translate(208px,0px)}13.04%{transform:translate(208px,16px)}14.65%{transform:translate(320px,16px)}15.33%{transform:translate(320px,64px)}15.79%{transform:translate(352px,64px)}16.02%{transform:translate(352px,48px)}18.31%,21.97%,40.73%{transform:translate(512px,48px)}18.76%,22.43%,43.02%{transform:translate(512px,16px)}19.22%{transform:translate(480px,16px)}20.14%{transform:translate(480px,80px)}20.59%{transform:translate(448px,80px)}21.05%{transform:translate(448px,48px)}24.94%{transform:translate(688px,16px)}25.63%{transform:translate(688px,64px)}27.92%,70.94%{transform:translate(528px,64px)}28.15%{transform:translate(528px,80px)}30.21%{transform:translate(384px,80px)}30.43%{transform:translate(384px,64px)}32.27%{transform:translate(256px,64px)}33.18%{transform:translate(208px,80px)}33.41%,75.97%{transform:translate(208px,64px)}33.87%{transform:translate(176px,64px)}37.3%{transform:translate(384px,32px)}37.76%{transform:translate(384px,0px)}38.67%{transform:translate(448px,0px)}39.13%{transform:translate(448px,32px)}39.36%{transform:translate(464px,32px)}39.82%{transform:translate(464px,64px)}40.05%{transform:translate(480px,64px)}40.27%{transform:translate(480px,48px)}40.96%,52.86%{transform:translate(512px,64px)}41.42%,52.4%{transform:translate(544px,64px)}41.88%{transform:translate(544px,32px)}42.11%{transform:translate(528px,32px)}42.56%{transform:translate(528px,0px)}42.79%{transform:translate(512px,0px)}44.85%{transform:translate(640px,16px)}45.08%{transform:translate(640px,32px)}47.83%{transform:translate(832px,32px)}48.05%{transform:translate(832px,48px)}52.17%{transform:translate(544px,48px)}53.09%{transform:translate(512px,80px)}59.27%{transform:translate(80px,80px)}59.73%{transform:translate(80px,48px)}60.64%{transform:translate(16px,48px)}61.1%{transform:translate(16px,80px)}61.56%{transform:translate(0px,96px)}61.78%{transform:translate(16px,96px)}62.93%{transform:translate(16px,16px)}69.79%{transform:translate(496px,16px)}70.48%{transform:translate(496px,64px)}71.17%{transform:translate(528px,48px)}75.51%{transform:translate(224px,48px)}75.74%{transform:translate(224px,64px)}76.2%{transform:translate(208px,48px)}77.35%{transform:translate(128px,48px)}77.57%{transform:translate(128px,32px)}87.41%{transform:translate(816px,32px)}87.87%{transform:translate(816px,0px)}98.63%{transform:translate(80px,-16px)}}.s.s0{transform:translate(0px,-16px);animation-name:s0}@keyframes s1{0%,99.77%{transform:translate(16px,-16px)}0.23%{transform:translate(0px,-16px)}0.46%{transform:translate(0px,0px)}1.6%,98.63%{transform:translate(80px,0px)}1.83%{transform:translate(80px,16px)}2.52%{transform:translate(32px,16px)}2.97%{transform:translate(32px,48px)}3.2%,4.58%,7.32%{transform:translate(48px,48px)}3.66%{transform:translate(48px,80px)}3.89%{transform:translate(64px,80px)}4.12%{transform:translate(64px,64px)}4.35%{transform:translate(48px,64px)}5.26%,6.64%{transform:translate(0px,48px)}5.72%,61.56%{transform:translate(0px,80px)}5.95%{transform:translate(-16px,80px)}6.18%{transform:translate(-16px,64px)}6.41%{transform:translate(0px,64px)}7.55%{transform:translate(48px,32px)}9.38%,34.55%{transform:translate(176px,32px)}10.07%{transform:translate(176px,80px)}11.21%,32.72%{transform:translate(256px,80px)}12.13%{transform:translate(256px,16px)}12.59%{transform:translate(224px,16px)}12.81%{transform:translate(224px,0px)}13.04%{transform:translate(208px,0px)}13.27%{transform:translate(208px,16px)}14.87%{transform:translate(320px,16px)}15.56%{transform:translate(320px,64px)}16.02%{transform:translate(352px,64px)}16.25%{transform:translate(352px,48px)}18.54%,22.2%,40.96%{transform:translate(512px,48px)}18.99%,22.65%,43.25%{transform:translate(512px,16px)}19.45%{transform:translate(480px,16px)}20.37%{transform:translate(480px,80px)}20.82%{transform:translate(448px,80px)}21.28%{transform:translate(448px,48px)}25.17%{transform:translate(688px,16px)}25.86%{transform:translate(688px,64px)}28.15%,71.17%{transform:translate(528px,64px)}28.38%{transform:translate(528px,80px)}30.43%{transform:translate(384px,80px)}30.66%{transform:translate(384px,64px)}32.49%{transform:translate(256px,64px)}33.41%{transform:translate(208px,80px)}33.64%,76.2%{transform:translate(208px,64px)}34.1%{transform:translate(176px,64px)}37.53%{transform:translate(384px,32px)}37.99%{transform:translate(384px,0px)}38.9%{transform:translate(448px,0px)}39.36%{transform:translate(448px,32px)}39.59%{transform:translate(464px,32px)}40.05%{transform:translate(464px,64px)}40.27%{transform:translate(480px,64px)}40.5%{transform:translate(480px,48px)}41.19%,53.09%{transform:translate(512px,64px)}41.65%,52.63%{transform:translate(544px,64px)}42.11%{transform:translate(544px,32px)}42.33%{transform:translate(528px,32px)}42.79%{transform:translate(528px,0px)}43.02%{transform:translate(512px,0px)}45.08%{transform:translate(640px,16px)}45.31%{transform:translate(640px,32px)}48.05%{transform:translate(832px,32px)}48.28%{transform:translate(832px,48px)}52.4%{transform:translate(544px,48px)}53.32%{transform:translate(512px,80px)}59.5%{transform:translate(80px,80px)}59.95%{transform:translate(80px,48px)}60.87%{transform:translate(16px,48px)}61.33%{transform:translate(16px,80px)}61.78%{transform:translate(0px,96px)}62.01%{transform:translate(16px,96px)}63.16%{transform:translate(16px,16px)}70.02%{transform:translate(496px,16px)}70.71%{transform:translate(496px,64px)}71.4%{transform:translate(528px,48px)}75.74%{transform:translate(224px,48px)}75.97%{transform:translate(224px,64px)}76.43%{transform:translate(208px,48px)}77.57%{transform:translate(128px,48px)}77.8%{transform:translate(128px,32px)}87.64%{transform:translate(816px,32px)}88.1%{transform:translate(816px,0px)}98.86%{transform:translate(80px,-16px)}}.s.s1{transform:translate(16px,-16px);animation-name:s1}@keyframes s2{0%,99.77%{transform:translate(32px,-16px)}0.46%{transform:translate(0px,-16px)}0.69%{transform:translate(0px,0px)}1.83%,98.86%{transform:translate(80px,0px)}2.06%{transform:translate(80px,16px)}2.75%{transform:translate(32px,16px)}3.2%{transform:translate(32px,48px)}3.43%,4.81%,7.55%{transform:translate(48px,48px)}3.89%{transform:translate(48px,80px)}4.12%{transform:translate(64px,80px)}4.35%{transform:translate(64px,64px)}4.58%{transform:translate(48px,64px)}5.49%,6.86%{transform:translate(0px,48px)}5.95%,61.78%{transform:translate(0px,80px)}6.18%{transform:translate(-16px,80px)}6.41%{transform:translate(-16px,64px)}6.64%{transform:translate(0px,64px)}7.78%{transform:translate(48px,32px)}9.61%,34.78%{transform:translate(176px,32px)}10.3%{transform:translate(176px,80px)}11.44%,32.95%{transform:translate(256px,80px)}12.36%{transform:translate(256px,16px)}12.81%{transform:translate(224px,16px)}13.04%{transform:translate(224px,0px)}13.27%{transform:translate(208px,0px)}13.5%{transform:translate(208px,16px)}15.1%{transform:translate(320px,16px)}15.79%{transform:translate(320px,64px)}16.25%{transform:translate(352px,64px)}16.48%{transform:translate(352px,48px)}18.76%,22.43%,41.19%{transform:translate(512px,48px)}19.22%,22.88%,43.48%{transform:translate(512px,16px)}19.68%{transform:translate(480px,16px)}20.59%{transform:translate(480px,80px)}21.05%{transform:translate(448px,80px)}21.51%{transform:translate(448px,48px)}25.4%{transform:translate(688px,16px)}26.09%{transform:translate(688px,64px)}28.38%,71.4%{transform:translate(528px,64px)}28.6%{transform:translate(528px,80px)}30.66%{transform:translate(384px,80px)}30.89%{transform:translate(384px,64px)}32.72%{transform:translate(256px,64px)}33.64%{transform:translate(208px,80px)}33.87%,76.43%{transform:translate(208px,64px)}34.32%{transform:translate(176px,64px)}37.76%{transform:translate(384px,32px)}38.22%{transform:translate(384px,0px)}39.13%{transform:translate(448px,0px)}39.59%{transform:translate(448px,32px)}39.82%{transform:translate(464px,32px)}40.27%{transform:translate(464px,64px)}40.5%{transform:translate(480px,64px)}40.73%{transform:translate(480px,48px)}41.42%,53.32%{transform:translate(512px,64px)}41.88%,52.86%{transform:translate(544px,64px)}42.33%{transform:translate(544px,32px)}42.56%{transform:translate(528px,32px)}43.02%{transform:translate(528px,0px)}43.25%{transform:translate(512px,0px)}45.31%{transform:translate(640px,16px)}45.54%{transform:translate(640px,32px)}48.28%{transform:translate(832px,32px)}48.51%{transform:translate(832px,48px)}52.63%{transform:translate(544px,48px)}53.55%{transform:translate(512px,80px)}59.73%{transform:translate(80px,80px)}60.18%{transform:translate(80px,48px)}61.1%{transform:translate(16px,48px)}61.56%{transform:translate(16px,80px)}62.01%{transform:translate(0px,96px)}62.24%{transform:translate(16px,96px)}63.39%{transform:translate(16px,16px)}70.25%{transform:translate(496px,16px)}70.94%{transform:translate(496px,64px)}71.62%{transform:translate(528px,48px)}75.97%{transform:translate(224px,48px)}76.2%{transform:translate(224px,64px)}76.66%{transform:translate(208px,48px)}77.8%{transform:translate(128px,48px)}78.03%{transform:translate(128px,32px)}87.87%{transform:translate(816px,32px)}88.33%{transform:translate(816px,0px)}99.08%{transform:translate(80px,-16px)}}.s.s2{transform:translate(32px,-16px);animation-name:s2}@keyframes s3{0%,99.77%{transform:translate(48px,-16px)}0.69%{transform:translate(0px,-16px)}0.92%{transform:translate(0px,0px)}2.06%,99.08%{transform:translate(80px,0px)}2.29%{transform:translate(80px,16px)}2.97%{transform:translate(32px,16px)}3.43%{transform:translate(32px,48px)}3.66%,5.03%,7.78%{transform:translate(48px,48px)}4.12%{transform:translate(48px,80px)}4.35%{transform:translate(64px,80px)}4.58%{transform:translate(64px,64px)}4.81%{transform:translate(48px,64px)}5.72%,7.09%{transform:translate(0px,48px)}6.18%,62.01%{transform:translate(0px,80px)}6.41%{transform:translate(-16px,80px)}6.64%{transform:translate(-16px,64px)}6.86%{transform:translate(0px,64px)}8.01%{transform:translate(48px,32px)}9.84%,35.01%{transform:translate(176px,32px)}10.53%{transform:translate(176px,80px)}11.67%,33.18%{transform:translate(256px,80px)}12.59%{transform:translate(256px,16px)}13.04%{transform:translate(224px,16px)}13.27%{transform:translate(224px,0px)}13.5%{transform:translate(208px,0px)}13.73%{transform:translate(208px,16px)}15.33%{transform:translate(320px,16px)}16.02%{transform:translate(320px,64px)}16.48%{transform:translate(352px,64px)}16.7%{transform:translate(352px,48px)}18.99%,22.65%,41.42%{transform:translate(512px,48px)}19.45%,23.11%,43.71%{transform:translate(512px,16px)}19.91%{transform:translate(480px,16px)}20.82%{transform:translate(480px,80px)}21.28%{transform:translate(448px,80px)}21.74%{transform:translate(448px,48px)}25.63%{transform:translate(688px,16px)}26.32%{transform:translate(688px,64px)}28.6%,71.62%{transform:translate(528px,64px)}28.83%{transform:translate(528px,80px)}30.89%{transform:translate(384px,80px)}31.12%{transform:translate(384px,64px)}32.95%{transform:translate(256px,64px)}33.87%{transform:translate(208px,80px)}34.1%,76.66%{transform:translate(208px,64px)}34.55%{transform:translate(176px,64px)}37.99%{transform:translate(384px,32px)}38.44%{transform:translate(384px,0px)}39.36%{transform:translate(448px,0px)}39.82%{transform:translate(448px,32px)}40.05%{transform:translate(464px,32px)}40.5%{transform:translate(464px,64px)}40.73%{transform:translate(480px,64px)}40.96%{transform:translate(480px,48px)}41.65%,53.55%{transform:translate(512px,64px)}42.11%,53.09%{transform:translate(544px,64px)}42.56%{transform:translate(544px,32px)}42.79%{transform:translate(528px,32px)}43.25%{transform:translate(528px,0px)}43.48%{transform:translate(512px,0px)}45.54%{transform:translate(640px,16px)}45.77%{transform:translate(640px,32px)}48.51%{transform:translate(832px,32px)}48.74%{transform:translate(832px,48px)}52.86%{transform:translate(544px,48px)}53.78%{transform:translate(512px,80px)}59.95%{transform:translate(80px,80px)}60.41%{transform:translate(80px,48px)}61.33%{transform:translate(16px,48px)}61.78%{transform:translate(16px,80px)}62.24%{transform:translate(0px,96px)}62.47%{transform:translate(16px,96px)}63.62%{transform:translate(16px,16px)}70.48%{transform:translate(496px,16px)}71.17%{transform:translate(496px,64px)}71.85%{transform:translate(528px,48px)}76.2%{transform:translate(224px,48px)}76.43%{transform:translate(224px,64px)}76.89%{transform:translate(208px,48px)}78.03%{transform:translate(128px,48px)}78.26%{transform:translate(128px,32px)}88.1%{transform:translate(816px,32px)}88.56%{transform:translate(816px,0px)}99.31%{transform:translate(80px,-16px)}}.s.s3{transform:translate(48px,-16px);animation-name:s3}</style><rect class="c" x="2" y="2" rx="2" ry="2"/><rect class="c" x="2" y="18" rx="2" ry="2"/><rect class="c" x="2" y="34" rx="2" ry="2"/><rect class="c" x="2" y="50" rx="2" ry="2"/><rect class="c" x="2" y="66" rx="2" ry="2"/><rect class="c c0" x="2" y="82" rx="2" ry="2"/><rect class="c c1" x="2" y="98" rx="2" ry="2"/><rect class="c" x="18" y="2" rx="2" ry="2"/><rect class="c c2" x="18" y="18" rx="2" ry="2"/><rect class="c" x="18" y="34" rx="2" ry="2"/><rect class="c" x="18" y="50" rx="2" ry="2"/><rect class="c c3" x="18" y="66" rx="2" ry="2"/><rect class="c c4" x="18" y="82" rx="2" ry="2"/><rect class="c" x="18" y="98" rx="2" ry="2"/><rect class="c" x="34" y="2" rx="2" ry="2"/><rect class="c" x="34" y="18" rx="2" ry="2"/><rect class="c" x="34" y="34" rx="2" ry="2"/><rect class="c c5" x="34" y="50" rx="2" ry="2"/><rect class="c" x="34" y="66" rx="2" ry="2"/><rect class="c" x="34" y="82" rx="2" ry="2"/><rect class="c" x="34" y="98" rx="2" ry="2"/><rect class="c c6" x="50" y="2" rx="2" ry="2"/><rect class="c" x="50" y="18" rx="2" ry="2"/><rect class="c" x="50" y="34" rx="2" ry="2"/><rect class="c" x="50" y="50" rx="2" ry="2"/><rect class="c" x="50" y="66" rx="2" ry="2"/><rect class="c c7" x="50" y="82" rx="2" ry="2"/><rect class="c" x="50" y="98" rx="2" ry="2"/><rect class="c" x="66" y="2" rx="2" ry="2"/><rect class="c" x="66" y="18" rx="2" ry="2"/><rect class="c" x="66" y="34" rx="2" ry="2"/><rect class="c c8" x="66" y="50" rx="2" ry="2"/><rect class="c" x="66" y="66" rx="2" ry="2"/><rect class="c c9" x="66" y="82" rx="2" ry="2"/><rect class="c" x="66" y="98" rx="2" ry="2"/><rect class="c" x="82" y="2" rx="2" ry="2"/><rect class="c ca" x="82" y="18" rx="2" ry="2"/><rect class="c" x="82" y="34" rx="2" ry="2"/><rect class="c" x="82" y="50" rx="2" ry="2"/><rect class="c cb" x="82" y="66" rx="2" ry="2"/><rect class="c cc" x="82" y="82" rx="2" ry="2"/><rect class="c" x="82" y="98" rx="2" ry="2"/><rect class="c" x="98" y="2" rx="2" ry="2"/><rect class="c" x="98" y="18" rx="2" ry="2"/><rect class="c" x="98" y="34" rx="2" ry="2"/><rect class="c" x="98" y="50" rx="2" ry="2"/><rect class="c" x="98" y="66" rx="2" ry="2"/><rect class="c" x="98" y="82" rx="2" ry="2"/><rect class="c" x="98" y="98" rx="2" ry="2"/><rect class="c" x="114" y="2" rx="2" ry="2"/><rect class="c" x="114" y="18" rx="2" ry="2"/><rect class="c" x="114" y="34" rx="2" ry="2"/><rect class="c" x="114" y="50" rx="2" ry="2"/><rect class="c" x="114" y="66" rx="2" ry="2"/><rect class="c cd" x="114" y="82" rx="2" ry="2"/><rect class="c" x="114" y="98" rx="2" ry="2"/><rect class="c" x="130" y="2" rx="2" ry="2"/><rect class="c ce" x="130" y="18" rx="2" ry="2"/><rect class="c" x="130" y="34" rx="2" ry="2"/><rect class="c cf" x="130" y="50" rx="2" ry="2"/><rect class="c" x="130" y="66" rx="2" ry="2"/><rect class="c" x="130" y="82" rx="2" ry="2"/><rect class="c" x="130" y="98" rx="2" ry="2"/><rect class="c" x="146" y="2" rx="2" ry="2"/><rect class="c" x="146" y="18" rx="2" ry="2"/><rect class="c" x="146" y="34" rx="2" ry="2"/><rect class="c" x="146" y="50" rx="2" ry="2"/><rect class="c" x="146" y="66" rx="2" ry="2"/><rect class="c" x="146" y="82" rx="2" ry="2"/><rect class="c" x="146" y="98" rx="2" ry="2"/><rect class="c" x="162" y="2" rx="2" ry="2"/><rect class="c" x="162" y="18" rx="2" ry="2"/><rect class="c" x="162" y="34" rx="2" ry="2"/><rect class="c" x="162" y="50" rx="2" ry="2"/><rect class="c" x="162" y="66" rx="2" ry="2"/><rect class="c" x="162" y="82" rx="2" ry="2"/><rect class="c" x="162" y="98" rx="2" ry="2"/><rect class="c" x="178" y="2" rx="2" ry="2"/><rect class="c cg" x="178" y="18" rx="2" ry="2"/><rect class="c" x="178" y="34" rx="2" ry="2"/><rect class="c ch" x="178" y="50" rx="2" ry="2"/><rect class="c" x="178" y="66" rx="2" ry="2"/><rect class="c" x="178" y="82" rx="2" ry="2"/><rect class="c" x="178" y="98" rx="2" ry="2"/><rect class="c" x="194" y="2" rx="2" ry="2"/><rect class="c" x="194" y="18" rx="2" ry="2"/><rect class="c" x="194" y="34" rx="2" ry="2"/><rect class="c ci" x="194" y="50" rx="2" ry="2"/><rect class="c cj" x="194" y="66" rx="2" ry="2"/><rect class="c ck" x="194" y="82" rx="2" ry="2"/><rect class="c" x="194" y="98" rx="2" ry="2"/><rect class="c" x="210" y="2" rx="2" ry="2"/><rect class="c cl" x="210" y="18" rx="2" ry="2"/><rect class="c cm" x="210" y="34" rx="2" ry="2"/><rect class="c" x="210" y="50" rx="2" ry="2"/><rect class="c cn" x="210" y="66" rx="2" ry="2"/><rect class="c co" x="210" y="82" rx="2" ry="2"/><rect class="c" x="210" y="98" rx="2" ry="2"/><rect class="c cp" x="226" y="2" rx="2" ry="2"/><rect class="c cq" x="226" y="18" rx="2" ry="2"/><rect class="c" x="226" y="34" rx="2" ry="2"/><rect class="c cr" x="226" y="50" rx="2" ry="2"/><rect class="c cs" x="226" y="66" rx="2" ry="2"/><rect class="c ct" x="226" y="82" rx="2" ry="2"/><rect class="c" x="226" y="98" rx="2" ry="2"/><rect class="c" x="242" y="2" rx="2" ry="2"/><rect class="c cu" x="242" y="18" rx="2" ry="2"/><rect class="c" x="242" y="34" rx="2" ry="2"/><rect class="c" x="242" y="50" rx="2" ry="2"/><rect class="c" x="242" y="66" rx="2" ry="2"/><rect class="c" x="242" y="82" rx="2" ry="2"/><rect class="c" x="242" y="98" rx="2" ry="2"/><rect class="c" x="258" y="2" rx="2" ry="2"/><rect class="c" x="258" y="18" rx="2" ry="2"/><rect class="c cv" x="258" y="34" rx="2" ry="2"/><rect class="c" x="258" y="50" rx="2" ry="2"/><rect class="c" x="258" y="66" rx="2" ry="2"/><rect class="c" x="258" y="82" rx="2" ry="2"/><rect class="c" x="258" y="98" rx="2" ry="2"/><rect class="c" x="274" y="2" rx="2" ry="2"/><rect class="c" x="274" y="18" rx="2" ry="2"/><rect class="c" x="274" y="34" rx="2" ry="2"/><rect class="c" x="274" y="50" rx="2" ry="2"/><rect class="c" x="274" y="66" rx="2" ry="2"/><rect class="c" x="274" y="82" rx="2" ry="2"/><rect class="c" x="274" y="98" rx="2" ry="2"/><rect class="c" x="290" y="2" rx="2" ry="2"/><rect class="c" x="290" y="18" rx="2" ry="2"/><rect class="c" x="290" y="34" rx="2" ry="2"/><rect class="c" x="290" y="50" rx="2" ry="2"/><rect class="c" x="290" y="66" rx="2" ry="2"/><rect class="c" x="290" y="82" rx="2" ry="2"/><rect class="c" x="290" y="98" rx="2" ry="2"/><rect class="c" x="306" y="2" rx="2" ry="2"/><rect class="c" x="306" y="18" rx="2" ry="2"/><rect class="c cw" x="306" y="34" rx="2" ry="2"/><rect class="c" x="306" y="50" rx="2" ry="2"/><rect class="c" x="306" y="66" rx="2" ry="2"/><rect class="c" x="306" y="82" rx="2" ry="2"/><rect class="c" x="306" y="98" rx="2" ry="2"/><rect class="c" x="322" y="2" rx="2" ry="2"/><rect class="c" x="322" y="18" rx="2" ry="2"/><rect class="c" x="322" y="34" rx="2" ry="2"/><rect class="c cx" x="322" y="50" rx="2" ry="2"/><rect class="c" x="322" y="66" rx="2" ry="2"/><rect class="c" x="322" y="82" rx="2" ry="2"/><rect class="c" x="322" y="98" rx="2" ry="2"/><rect class="c" x="338" y="2" rx="2" ry="2"/><rect class="c" x="338" y="18" rx="2" ry="2"/><rect class="c" x="338" y="34" rx="2" ry="2"/><rect class="c cy" x="338" y="50" rx="2" ry="2"/><rect class="c" x="338" y="66" rx="2" ry="2"/><rect class="c" x="338" y="82" rx="2" ry="2"/><rect class="c" x="338" y="98" rx="2" ry="2"/><rect class="c" x="354" y="2" rx="2" ry="2"/><rect class="c" x="354" y="18" rx="2" ry="2"/><rect class="c" x="354" y="34" rx="2" ry="2"/><rect class="c cz" x="354" y="50" rx="2" ry="2"/><rect class="c" x="354" y="66" rx="2" ry="2"/><rect class="c" x="354" y="82" rx="2" ry="2"/><rect class="c" x="354" y="98" rx="2" ry="2"/><rect class="c" x="370" y="2" rx="2" ry="2"/><rect class="c" x="370" y="18" rx="2" ry="2"/><rect class="c" x="370" y="34" rx="2" ry="2"/><rect class="c" x="370" y="50" rx="2" ry="2"/><rect class="c" x="370" y="66" rx="2" ry="2"/><rect class="c c10" x="370" y="82" rx="2" ry="2"/><rect class="c" x="370" y="98" rx="2" ry="2"/><rect class="c c11" x="386" y="2" rx="2" ry="2"/><rect class="c" x="386" y="18" rx="2" ry="2"/><rect class="c" x="386" y="34" rx="2" ry="2"/><rect class="c" x="386" y="50" rx="2" ry="2"/><rect class="c" x="386" y="66" rx="2" ry="2"/><rect class="c" x="386" y="82" rx="2" ry="2"/><rect class="c" x="386" y="98" rx="2" ry="2"/><rect class="c" x="402" y="2" rx="2" ry="2"/><rect class="c" x="402" y="18" rx="2" ry="2"/><rect class="c" x="402" y="34" rx="2" ry="2"/><rect class="c c12" x="402" y="50" rx="2" ry="2"/><rect class="c" x="402" y="66" rx="2" ry="2"/><rect class="c" x="402" y="82" rx="2" ry="2"/><rect class="c" x="402" y="98" rx="2" ry="2"/><rect class="c" x="418" y="2" rx="2" ry="2"/><rect class="c" x="418" y="18" rx="2" ry="2"/><rect class="c" x="418" y="34" rx="2" ry="2"/><rect class="c" x="418" y="50" rx="2" ry="2"/><rect class="c" x="418" y="66" rx="2" ry="2"/><rect class="c" x="418" y="82" rx="2" ry="2"/><rect class="c" x="418" y="98" rx="2" ry="2"/><rect class="c" x="434" y="2" rx="2" ry="2"/><rect class="c" x="434" y="18" rx="2" ry="2"/><rect class="c" x="434" y="34" rx="2" ry="2"/><rect class="c" x="434" y="50" rx="2" ry="2"/><rect class="c" x="434" y="66" rx="2" ry="2"/><rect class="c" x="434" y="82" rx="2" ry="2"/><rect class="c" x="434" y="98" rx="2" ry="2"/><rect class="c" x="450" y="2" rx="2" ry="2"/><rect class="c" x="450" y="18" rx="2" ry="2"/><rect class="c c13" x="450" y="34" rx="2" ry="2"/><rect class="c" x="450" y="50" rx="2" ry="2"/><rect class="c" x="450" y="66" rx="2" ry="2"/><rect class="c" x="450" y="82" rx="2" ry="2"/><rect class="c" x="450" y="98" rx="2" ry="2"/><rect class="c" x="466" y="2" rx="2" ry="2"/><rect class="c" x="466" y="18" rx="2" ry="2"/><rect class="c" x="466" y="34" rx="2" ry="2"/><rect class="c" x="466" y="50" rx="2" ry="2"/><rect class="c c14" x="466" y="66" rx="2" ry="2"/><rect class="c c15" x="466" y="82" rx="2" ry="2"/><rect class="c" x="466" y="98" rx="2" ry="2"/><rect class="c" x="482" y="2" rx="2" ry="2"/><rect class="c c16" x="482" y="18" rx="2" ry="2"/><rect class="c" x="482" y="34" rx="2" ry="2"/><rect class="c" x="482" y="50" rx="2" ry="2"/><rect class="c" x="482" y="66" rx="2" ry="2"/><rect class="c" x="482" y="82" rx="2" ry="2"/><rect class="c" x="482" y="98" rx="2" ry="2"/><rect class="c" x="498" y="2" rx="2" ry="2"/><rect class="c c17" x="498" y="18" rx="2" ry="2"/><rect class="c" x="498" y="34" rx="2" ry="2"/><rect class="c c18" x="498" y="50" rx="2" ry="2"/><rect class="c c19" x="498" y="66" rx="2" ry="2"/><rect class="c" x="498" y="82" rx="2" ry="2"/><rect class="c" x="498" y="98" rx="2" ry="2"/><rect class="c c1a" x="514" y="2" rx="2" ry="2"/><rect class="c" x="514" y="18" rx="2" ry="2"/><rect class="c c1b" x="514" y="34" rx="2" ry="2"/><rect class="c" x="514" y="50" rx="2" ry="2"/><rect class="c c1c" x="514" y="66" rx="2" ry="2"/><rect class="c" x="514" y="82" rx="2" ry="2"/><rect class="c" x="514" y="98" rx="2" ry="2"/><rect class="c" x="530" y="2" rx="2" ry="2"/><rect class="c" x="530" y="18" rx="2" ry="2"/><rect class="c c1d" x="530" y="34" rx="2" ry="2"/><rect class="c c1e" x="530" y="50" rx="2" ry="2"/><rect class="c" x="530" y="66" rx="2" ry="2"/><rect class="c" x="530" y="82" rx="2" ry="2"/><rect class="c" x="530" y="98" rx="2" ry="2"/><rect class="c" x="546" y="2" rx="2" ry="2"/><rect class="c" x="546" y="18" rx="2" ry="2"/><rect class="c" x="546" y="34" rx="2" ry="2"/><rect class="c" x="546" y="50" rx="2" ry="2"/><rect class="c" x="546" y="66" rx="2" ry="2"/><rect class="c" x="546" y="82" rx="2" ry="2"/><rect class="c" x="546" y="98" rx="2" ry="2"/><rect class="c" x="562" y="2" rx="2" ry="2"/><rect class="c" x="562" y="18" rx="2" ry="2"/><rect class="c" x="562" y="34" rx="2" ry="2"/><rect class="c" x="562" y="50" rx="2" ry="2"/><rect class="c" x="562" y="66" rx="2" ry="2"/><rect class="c" x="562" y="82" rx="2" ry="2"/><rect class="c" x="562" y="98" rx="2" ry="2"/><rect class="c" x="578" y="2" rx="2" ry="2"/><rect class="c c1f" x="578" y="18" rx="2" ry="2"/><rect class="c" x="578" y="34" rx="2" ry="2"/><rect class="c" x="578" y="50" rx="2" ry="2"/><rect class="c" x="578" y="66" rx="2" ry="2"/><rect class="c" x="578" y="82" rx="2" ry="2"/><rect class="c" x="578" y="98" rx="2" ry="2"/><rect class="c" x="594" y="2" rx="2" ry="2"/><rect class="c" x="594" y="18" rx="2" ry="2"/><rect class="c" x="594" y="34" rx="2" ry="2"/><rect class="c" x="594" y="50" rx="2" ry="2"/><rect class="c" x="594" y="66" rx="2" ry="2"/><rect class="c" x="594" y="82" rx="2" ry="2"/><rect class="c" x="594" y="98" rx="2" ry="2"/><rect class="c" x="610" y="2" rx="2" ry="2"/><rect class="c" x="610" y="18" rx="2" ry="2"/><rect class="c" x="610" y="34" rx="2" ry="2"/><rect class="c" x="610" y="50" rx="2" ry="2"/><rect class="c" x="610" y="66" rx="2" ry="2"/><rect class="c" x="610" y="82" rx="2" ry="2"/><rect class="c" x="610" y="98" rx="2" ry="2"/><rect class="c" x="626" y="2" rx="2" ry="2"/><rect class="c" x="626" y="18" rx="2" ry="2"/><rect class="c" x="626" y="34" rx="2" ry="2"/><rect class="c" x="626" y="50" rx="2" ry="2"/><rect class="c" x="626" y="66" rx="2" ry="2"/><rect class="c" x="626" y="82" rx="2" ry="2"/><rect class="c" x="626" y="98" rx="2" ry="2"/><rect class="c" x="642" y="2" rx="2" ry="2"/><rect class="c" x="642" y="18" rx="2" ry="2"/><rect class="c c1g" x="642" y="34" rx="2" ry="2"/><rect class="c" x="642" y="50" rx="2" ry="2"/><rect class="c" x="642" y="66" rx="2" ry="2"/><rect class="c" x="642" y="82" rx="2" ry="2"/><rect class="c" x="642" y="98" rx="2" ry="2"/><rect class="c" x="658" y="2" rx="2" ry="2"/><rect class="c" x="658" y="18" rx="2" ry="2"/><rect class="c" x="658" y="34" rx="2" ry="2"/><rect class="c" x="658" y="50" rx="2" ry="2"/><rect class="c" x="658" y="66" rx="2" ry="2"/><rect class="c" x="658" y="82" rx="2" ry="2"/><rect class="c" x="658" y="98" rx="2" ry="2"/><rect class="c" x="674" y="2" rx="2" ry="2"/><rect class="c" x="674" y="18" rx="2" ry="2"/><rect class="c" x="674" y="34" rx="2" ry="2"/><rect class="c" x="674" y="50" rx="2" ry="2"/><rect class="c" x="674" y="66" rx="2" ry="2"/><rect class="c" x="674" y="82" rx="2" ry="2"/><rect class="c" x="674" y="98" rx="2" ry="2"/><rect class="c" x="690" y="2" rx="2" ry="2"/><rect class="c" x="690" y="18" rx="2" ry="2"/><rect class="c" x="690" y="34" rx="2" ry="2"/><rect class="c" x="690" y="50" rx="2" ry="2"/><rect class="c c1h" x="690" y="66" rx="2" ry="2"/><rect class="c" x="690" y="82" rx="2" ry="2"/><rect class="c" x="690" y="98" rx="2" ry="2"/><rect class="c" x="706" y="2" rx="2" ry="2"/><rect class="c" x="706" y="18" rx="2" ry="2"/><rect class="c" x="706" y="34" rx="2" ry="2"/><rect class="c" x="706" y="50" rx="2" ry="2"/><rect class="c" x="706" y="66" rx="2" ry="2"/><rect class="c" x="706" y="82" rx="2" ry="2"/><rect class="c" x="706" y="98" rx="2" ry="2"/><rect class="c" x="722" y="2" rx="2" ry="2"/><rect class="c" x="722" y="18" rx="2" ry="2"/><rect class="c" x="722" y="34" rx="2" ry="2"/><rect class="c" x="722" y="50" rx="2" ry="2"/><rect class="c" x="722" y="66" rx="2" ry="2"/><rect class="c" x="722" y="82" rx="2" ry="2"/><rect class="c" x="722" y="98" rx="2" ry="2"/><rect class="c" x="738" y="2" rx="2" ry="2"/><rect class="c" x="738" y="18" rx="2" ry="2"/><rect class="c" x="738" y="34" rx="2" ry="2"/><rect class="c" x="738" y="50" rx="2" ry="2"/><rect class="c" x="738" y="66" rx="2" ry="2"/><rect class="c" x="738" y="82" rx="2" ry="2"/><rect class="c" x="738" y="98" rx="2" ry="2"/><rect class="c" x="754" y="2" rx="2" ry="2"/><rect class="c" x="754" y="18" rx="2" ry="2"/><rect class="c" x="754" y="34" rx="2" ry="2"/><rect class="c" x="754" y="50" rx="2" ry="2"/><rect class="c" x="754" y="66" rx="2" ry="2"/><rect class="c" x="754" y="82" rx="2" ry="2"/><rect class="c" x="754" y="98" rx="2" ry="2"/><rect class="c" x="770" y="2" rx="2" ry="2"/><rect class="c" x="770" y="18" rx="2" ry="2"/><rect class="c" x="770" y="34" rx="2" ry="2"/><rect class="c" x="770" y="50" rx="2" ry="2"/><rect class="c" x="770" y="66" rx="2" ry="2"/><rect class="c" x="770" y="82" rx="2" ry="2"/><rect class="c" x="770" y="98" rx="2" ry="2"/><rect class="c" x="786" y="2" rx="2" ry="2"/><rect class="c" x="786" y="18" rx="2" ry="2"/><rect class="c" x="786" y="34" rx="2" ry="2"/><rect class="c" x="786" y="50" rx="2" ry="2"/><rect class="c" x="786" y="66" rx="2" ry="2"/><rect class="c" x="786" y="82" rx="2" ry="2"/><rect class="c" x="786" y="98" rx="2" ry="2"/><rect class="c" x="802" y="2" rx="2" ry="2"/><rect class="c" x="802" y="18" rx="2" ry="2"/><rect class="c" x="802" y="34" rx="2" ry="2"/><rect class="c" x="802" y="50" rx="2" ry="2"/><rect class="c" x="802" y="66" rx="2" ry="2"/><rect class="c" x="802" y="82" rx="2" ry="2"/><rect class="c" x="802" y="98" rx="2" ry="2"/><rect class="c c1i" x="818" y="2" rx="2" ry="2"/><rect class="c" x="818" y="18" rx="2" ry="2"/><rect class="c" x="818" y="34" rx="2" ry="2"/><rect class="c c1j" x="818" y="50" rx="2" ry="2"/><rect class="c" x="818" y="66" rx="2" ry="2"/><rect class="c" x="818" y="82" rx="2" ry="2"/><rect class="c" x="818" y="98" rx="2" ry="2"/><rect class="c" x="834" y="2" rx="2" ry="2"/><rect class="c" x="834" y="18" rx="2" ry="2"/><rect class="c c1k" x="834" y="34" rx="2" ry="2"/><rect class="c" x="834" y="50" rx="2" ry="2"/><rect class="c" x="834" y="66" rx="2" ry="2"/><rect class="c" x="834" y="82" rx="2" ry="2"/><rect class="c" x="834" y="98" rx="2" ry="2"/><rect class="u u0" height="12" width="387.4" x="0.0" y="144"/><rect class="u u1" height="12" width="327.9" x="386.8" y="144"/><rect class="u u2" height="12" width="45.2" x="714.1" y="144"/><rect class="u u3" height="12" width="89.9" x="758.7" y="144"/><rect class="s s0" x="0.8" y="0.8" width="14.4" height="14.4" rx="4.5" ry="4.5"/><rect class="s s1" x="1.8" y="1.8" width="12.3" height="12.3" rx="4.1" ry="4.1"/><rect class="s s2" x="2.6" y="2.6" width="10.8" height="10.8" rx="3.6" ry="3.6"/><rect class="s s3" x="3.0" y="3.0" width="9.9" height="9.9" rx="3.3" ry="3.3"/></svg>